<svg width="15" height="11" viewBox="0 0 15 11" fill="none" xmlns="http://www.w3.org/2000/svg">
<path d="M8.293 0.293333C8.48053 0.105649 8.73484 0.000213623 9 0.000213623C9.26516 0.000213623 9.51947 0.105649 9.707 0.293333L14.207 4.79845C14.3945 4.98619 14.4998 5.24079 14.4998 5.50626C14.4998 5.77172 14.3945 6.02632 14.207 6.21406L9.707 10.7192C9.5184 10.9015 9.2658 11.0025 9.0036 11.0002C8.7414 10.9979 8.49059 10.8926 8.30518 10.707C8.11977 10.5214 8.0146 10.2703 8.01233 10.0078C8.01005 9.74528 8.11084 9.49239 8.293 9.30357L11 6.5074H1.5C1.23478 6.5074 0.98043 6.40192 0.792893 6.21417C0.605357 6.02642 0.5 5.77178 0.5 5.50626C0.5 5.24074 0.605357 4.9861 0.792893 4.79835C0.98043 4.6106 1.23478 4.50512 1.5 4.50512H11L8.293 1.70894C8.10553 1.5212 8.00021 1.2666 8.00021 1.00114C8.00021 0.735672 8.10553 0.481074 8.293 0.293333Z" fill="white"/>
</svg>
