<svg width="20" height="20" viewBox="0 0 20 20" fill="none" xmlns="http://www.w3.org/2000/svg">
<path d="M14.0367 1.02311C14.3609 0.698779 14.7459 0.441494 15.1697 0.265948C15.5934 0.0904025 16.0475 3.31793e-05 16.5062 9.13469e-09C16.9648 -3.31611e-05 17.419 0.0902705 17.8427 0.265755C18.2665 0.44124 18.6515 0.698469 18.9758 1.02276C19.3001 1.34704 19.5574 1.73204 19.733 2.15575C19.9085 2.57947 19.9989 3.03362 19.9989 3.49226C19.999 3.95091 19.9087 4.40507 19.7332 4.82881C19.5577 5.25255 19.3005 5.63759 18.9762 5.96192L18.3326 6.60552L18.529 6.80267C18.7612 7.03483 18.9454 7.31046 19.071 7.6138C19.1967 7.91715 19.2614 8.24227 19.2614 8.57061C19.2614 8.89896 19.1967 9.22408 19.071 9.52743C18.9454 9.83077 18.7612 10.1064 18.529 10.3386L16.9346 11.9329C16.7999 12.063 16.6195 12.135 16.4322 12.1334C16.2449 12.1318 16.0657 12.0567 15.9333 11.9242C15.8009 11.7918 15.7257 11.6126 15.7241 11.4253C15.7225 11.238 15.7945 11.0576 15.9246 10.9229L17.519 9.32851C17.6185 9.229 17.6975 9.11085 17.7514 8.98081C17.8053 8.85077 17.833 8.71138 17.833 8.57061C17.833 8.42985 17.8053 8.29046 17.7514 8.16042C17.6975 8.03038 17.6185 7.91223 17.519 7.81272L17.3218 7.61557L6.62273 18.3161C6.26253 18.6764 5.80585 18.925 5.30767 19.0318L0.864599 19.984C0.747912 20.0091 0.626792 20.0046 0.512307 19.9708C0.397821 19.9371 0.293618 19.8752 0.209219 19.7908C0.12482 19.7064 0.0629155 19.6022 0.0291604 19.4877C-0.00459472 19.3732 -0.00912386 19.2521 0.0159868 19.1354L0.968175 14.6923C1.07501 14.1942 1.32357 13.7375 1.68392 13.3773L14.0367 1.02311Z" fill="#333333"/>
</svg>
