<svg width="19" height="19" viewBox="0 0 19 19" fill="none" xmlns="http://www.w3.org/2000/svg">
<path d="M16.4 18.025L10.925 12.55L13.025 10.45L18.5 15.925L16.4 18.025ZM2.6 18.025L0.5 15.925L7.4 9.025L5.7 7.325L5 8.025L3.725 6.75V8.8L3.025 9.5L0 6.475L0.7 5.775H2.75L1.5 4.525L5.05 0.975001C5.38333 0.641668 5.74167 0.400001 6.125 0.250001C6.50833 0.100001 6.9 0.0250011 7.3 0.0250011C7.7 0.0250011 8.09167 0.100001 8.475 0.250001C8.85833 0.400001 9.21667 0.641668 9.55 0.975001L7.25 3.275L8.5 4.525L7.8 5.225L9.5 6.925L11.75 4.675C11.6833 4.49167 11.6293 4.3 11.588 4.1C11.5467 3.9 11.5257 3.7 11.525 3.5C11.525 2.51667 11.8627 1.68733 12.538 1.012C13.2133 0.336668 14.0423 -0.00066568 15.025 9.86193e-07C15.275 9.86193e-07 15.5127 0.025001 15.738 0.075001C15.9633 0.125001 16.1923 0.200001 16.425 0.300001L13.95 2.775L15.75 4.575L18.225 2.1C18.3417 2.33333 18.421 2.56233 18.463 2.787C18.505 3.01167 18.5257 3.24933 18.525 3.5C18.525 4.48333 18.1877 5.31267 17.513 5.988C16.8383 6.66333 16.009 7.00067 15.025 7C14.825 7 14.625 6.98333 14.425 6.95C14.225 6.91667 14.0333 6.85833 13.85 6.775L2.6 18.025Z" fill="#333333"/>
</svg>
